<svg width="25" height="24" viewBox="0 0 25 24" fill="none" xmlns="http://www.w3.org/2000/svg">
<path d="M20.2778 4H4.72222C3.49492 4 2.5 4.89543 2.5 6V20C2.5 21.1046 3.49492 22 4.72222 22H20.2778C21.5051 22 22.5 21.1046 22.5 20V6C22.5 4.89543 21.5051 4 20.2778 4Z" fill="#35E2E9" fill-opacity="0.2"/>
<path d="M16.5 2V6M8.5 2V6M3.5 10H21.5M4.72222 4H20.2778C21.5051 4 22.5 4.89543 22.5 6V20C22.5 21.1046 21.5051 22 20.2778 22H4.72222C3.49492 22 2.5 21.1046 2.5 20V6C2.5 4.89543 3.49492 4 4.72222 4Z" stroke="#35E2E9" stroke-width="2" stroke-linecap="round" stroke-linejoin="round"/>
</svg>
