<?xml version="1.0" standalone="no"?>
<!DOCTYPE svg PUBLIC "-//W3C//DTD SVG 20010904//EN"
 "http://www.w3.org/TR/2001/REC-SVG-20010904/DTD/svg10.dtd">
<svg version="1.0" xmlns="http://www.w3.org/2000/svg"
 width="512.000000pt" height="512.000000pt" viewBox="0 0 512.000000 512.000000"
 preserveAspectRatio="xMidYMid meet">
<g transform="translate(0.000000,512.000000) scale(0.100000,-0.100000)" fill="#000000" stroke="none">
<path d="M2310 5109 c-502 -55 -974 -249 -1355 -556 -129 -104 -340 -321 -433
-445 -265 -354 -434 -758 -498 -1193 -22 -147 -29 -428 -15 -575 42 -433 180
-833 405 -1174 414 -629 1047 -1032 1791 -1142 147 -22 428 -29 575 -15 433
42 833 180 1174 405 629 414 1032 1047 1142 1791 22 147 29 428 15 575 -51
524 -238 988 -558 1385 -104 129 -321 340 -445 433 -354 265 -755 432 -1193
498 -121 18 -487 26 -605 13z m450 -1003 c241 -33 444 -106 639 -233 83 -54
85 -55 142 -48 157 18 311 -77 365 -227 9 -24 16 -75 16 -115 1 -206 -186
-365 -389 -333 -77 13 -136 42 -188 95 -60 59 -95 135 -102 222 l-6 69 -61 36
c-136 81 -254 126 -404 154 -109 21 -317 20 -427 -1 -485 -93 -858 -465 -950
-947 -20 -108 -20 -327 0 -436 103 -540 564 -941 1110 -965 573 -25 1081 360
1210 919 39 165 39 399 1 541 l-14 52 36 7 c97 16 184 59 252 125 23 22 44 39
46 36 11 -11 63 -240 73 -322 58 -475 -120 -965 -473 -1302 -438 -419 -1081
-545 -1649 -323 -419 164 -762 526 -906 956 -58 173 -75 280 -75 484 -1 199
11 288 58 452 114 392 396 736 766 936 153 82 360 148 535 171 108 13 279 12
395 -3z m15 -900 c204 -70 366 -231 432 -430 24 -72 27 -96 27 -216 1 -123 -2
-142 -27 -215 -73 -207 -231 -365 -430 -432 -73 -24 -97 -27 -217 -27 -123 -1
-142 2 -215 27 -207 73 -365 231 -432 432 -24 71 -27 96 -27 215 -1 123 2 142
27 215 78 221 253 384 479 445 108 29 274 23 383 -14z"/>
</g>
</svg>
