<svg width="24" height="21" viewBox="0 0 24 21" fill="none" xmlns="http://www.w3.org/2000/svg">
<path d="M23 1.99998C22.0424 2.67546 20.9821 3.19209 19.86 3.52999C19.2577 2.8375 18.4573 2.34668 17.567 2.12391C16.6767 1.90115 15.7395 1.95718 14.8821 2.28444C14.0247 2.6117 13.2884 3.19439 12.773 3.9537C12.2575 4.71302 11.9877 5.61232 12 6.52998V7.52998C10.2426 7.57555 8.50127 7.1858 6.93101 6.39543C5.36074 5.60506 4.01032 4.43862 3 2.99998C3 2.99998 -1 12 8 16C5.94053 17.398 3.48716 18.0989 1 18C10 23 21 18 21 6.49998C20.9991 6.22144 20.9723 5.94358 20.92 5.66999C21.9406 4.66348 22.6608 3.3927 23 1.99998V1.99998Z" stroke="#1BD2D9" stroke-width="2" stroke-linecap="round" stroke-linejoin="round"/>
</svg>
