<svg width="25" height="20" viewBox="0 0 25 20" fill="none" xmlns="http://www.w3.org/2000/svg">
<path d="M17.5 19V17C17.5 15.9391 17.0786 14.9217 16.3284 14.1716C15.5783 13.4214 14.5609 13 13.5 13H5.5C4.43913 13 3.42172 13.4214 2.67157 14.1716C1.92143 14.9217 1.5 15.9391 1.5 17V19" fill="#35E2E9" fill-opacity="0.2"/>
<path d="M9.5 9C11.7091 9 13.5 7.20914 13.5 5C13.5 2.79086 11.7091 1 9.5 1C7.29086 1 5.5 2.79086 5.5 5C5.5 7.20914 7.29086 9 9.5 9Z" fill="#35E2E9" fill-opacity="0.2"/>
<path d="M23.5 19V17C23.4993 16.1137 23.2044 15.2528 22.6614 14.5523C22.1184 13.8519 21.3581 13.3516 20.5 13.13" fill="#35E2E9" fill-opacity="0.2"/>
<path d="M16.5 1.13C17.3604 1.3503 18.123 1.8507 18.6676 2.55231C19.2122 3.25392 19.5078 4.11683 19.5078 5.005C19.5078 5.89317 19.2122 6.75608 18.6676 7.45769C18.123 8.1593 17.3604 8.6597 16.5 8.88" fill="#35E2E9" fill-opacity="0.2"/>
<path d="M16.5 19C16.5 19.5523 16.9477 20 17.5 20C18.0523 20 18.5 19.5523 18.5 19H16.5ZM13.5 13V12V13ZM5.5 13V12V13ZM1.5 17H0.5H1.5ZM0.5 19C0.5 19.5523 0.947715 20 1.5 20C2.05228 20 2.5 19.5523 2.5 19H0.5ZM22.5 19C22.5 19.5523 22.9477 20 23.5 20C24.0523 20 24.5 19.5523 24.5 19H22.5ZM23.5 17H24.5V16.9993L23.5 17ZM20.75 12.1618C20.2153 12.0237 19.6698 12.3453 19.5318 12.88C19.3937 13.4147 19.7153 13.9602 20.25 14.0982L20.75 12.1618ZM16.748 0.16125C16.213 0.0242618 15.6682 0.346935 15.5312 0.881961C15.3943 1.41699 15.7169 1.96176 16.252 2.09875L16.748 0.16125ZM19.5078 5.005H20.5078H19.5078ZM16.252 7.91125C15.7169 8.04824 15.3943 8.59301 15.5312 9.12804C15.6682 9.66306 16.213 9.98574 16.748 9.84875L16.252 7.91125ZM18.5 19V17H16.5V19H18.5ZM18.5 17C18.5 15.6739 17.9732 14.4021 17.0355 13.4645L15.6213 14.8787C16.1839 15.4413 16.5 16.2044 16.5 17H18.5ZM17.0355 13.4645C16.0979 12.5268 14.8261 12 13.5 12V14C14.2956 14 15.0587 14.3161 15.6213 14.8787L17.0355 13.4645ZM13.5 12H5.5V14H13.5V12ZM5.5 12C4.17392 12 2.90215 12.5268 1.96447 13.4645L3.37868 14.8787C3.94129 14.3161 4.70435 14 5.5 14V12ZM1.96447 13.4645C1.02678 14.4021 0.5 15.6739 0.5 17H2.5C2.5 16.2044 2.81607 15.4413 3.37868 14.8787L1.96447 13.4645ZM0.5 17V19H2.5V17H0.5ZM12.5 5C12.5 6.65685 11.1569 8 9.5 8V10C12.2614 10 14.5 7.76142 14.5 5H12.5ZM9.5 8C7.84315 8 6.5 6.65685 6.5 5H4.5C4.5 7.76142 6.73858 10 9.5 10V8ZM6.5 5C6.5 3.34315 7.84315 2 9.5 2V0C6.73858 0 4.5 2.23858 4.5 5H6.5ZM9.5 2C11.1569 2 12.5 3.34315 12.5 5H14.5C14.5 2.23858 12.2614 0 9.5 0V2ZM24.5 19V17H22.5V19H24.5ZM24.5 16.9993C24.4992 15.8914 24.1304 14.8152 23.4517 13.9396L21.871 15.165C22.2783 15.6903 22.4995 16.336 22.5 17.0007L24.5 16.9993ZM23.4517 13.9396C22.773 13.0641 21.8227 12.4387 20.75 12.1618L20.25 14.0982C20.8936 14.2644 21.4638 14.6396 21.871 15.165L23.4517 13.9396ZM16.252 2.09875C16.8973 2.26398 17.4692 2.63928 17.8777 3.16548L19.4576 1.93914C18.7768 1.06213 17.8236 0.436626 16.748 0.16125L16.252 2.09875ZM17.8777 3.16548C18.2861 3.69169 18.5078 4.33887 18.5078 5.005H20.5078C20.5078 3.89479 20.1383 2.81615 19.4576 1.93914L17.8777 3.16548ZM18.5078 5.005C18.5078 5.67113 18.2861 6.31831 17.8777 6.84452L19.4576 8.07086C20.1383 7.19385 20.5078 6.11521 20.5078 5.005H18.5078ZM17.8777 6.84452C17.4692 7.37072 16.8973 7.74602 16.252 7.91125L16.748 9.84875C17.8236 9.57337 18.7768 8.94787 19.4576 8.07086L17.8777 6.84452Z" fill="#1BD2D9"/>
</svg>
